<svg width="176" height="238" viewBox="0 0 176 238" fill="none" xmlns="http://www.w3.org/2000/svg">
<path d="M108.588 96.2C108.588 96.2 108.588 80.24 108.588 67.7M108.588 67.7C108.588 54.02 108.588 35.78 108.588 22.1C108.588 12.98 116.569 5 125.69 5C134.811 5 142.792 12.98 142.792 22.1V119L165.595 149.78C172.436 158.9 171.296 170.3 164.455 179.42L121.13 226.16C116.569 230.72 110.869 233 104.028 233C91.4864 233 70.964 233 51.5818 233C24.2187 233 10.5371 203.36 5.97656 188.54V187.4C5.97656 179.42 5.97656 108.74 5.97656 90.5C5.97656 64.28 40.1805 64.28 40.1805 90.5C40.1805 95.06 40.1805 97.34 40.1805 97.34C40.1805 97.34 40.1805 80.24 40.1805 77.96C40.1805 51.74 74.3844 51.74 74.3844 77.96C74.3844 88.22 74.3844 97.34 74.3844 97.34V67.7C74.3844 41.48 108.588 41.48 108.588 67.7Z" stroke="#288E3E" stroke-width="10" stroke-linecap="round" stroke-linejoin="round"/>
</svg>
