<svg width="85" height="29" viewBox="0 0 85 29" fill="none" xmlns="http://www.w3.org/2000/svg">
<path d="M12.2734 28L12.6055 15.3828H12.0586C11.2383 25.6172 10.4961 27.4141 7.07812 27.4141H3.07422L2.97656 27.1797C3.30859 26.3984 3.64062 25.6367 3.91406 24.8555L12.293 1.04688V0.65625H0.808594L0.457031 12.1602H1.02344C1.78516 2.90234 2.58594 1.24219 6.12109 1.24219H9.53906L9.69531 1.47656C9.40234 2.12109 9.10938 2.90234 8.83594 3.64453L0.359375 27.6094V28H12.2734ZM22.3125 28.3125C26.7266 28.3125 29.0898 25.2461 29.0898 19.4648V9.19141C29.0898 3.41016 26.7266 0.34375 22.3125 0.34375C17.8789 0.34375 15.5352 3.41016 15.5352 9.19141V19.4648C15.5352 25.2461 17.8789 28.3125 22.3125 28.3125ZM22.3125 27.9219C19.3828 27.9219 17.9766 25.6758 17.9766 20.4023V8.27344C17.9766 2.98047 19.3828 0.734375 22.3125 0.734375C25.2422 0.734375 26.6289 2.98047 26.6289 8.27344V20.4023C26.6289 25.6758 25.2422 27.9219 22.3125 27.9219ZM43.582 28L43.875 17.9414H43.3086C42.6641 25.6953 41.8047 27.4141 38.582 27.4141H35.4375V13.7812H37.3516C39.3633 13.7812 39.832 14.582 40.1641 18.0391H40.5938V8.95703H40.1641C39.832 12.3945 39.3633 13.1953 37.3516 13.1953H35.4375V1.24219H38.4258C41.6094 1.24219 42.4883 2.78516 43.1523 9.07422H43.7188L43.3867 0.65625H31.2578V1.04688C32.8594 1.24219 33.0352 1.45703 33.0352 2.80469V25.8516C33.0352 27.1992 32.8594 27.4141 31.2578 27.6094V28H43.582ZM50.7891 28V27.6094C48.6992 27.0039 48.0352 25.5586 48.0352 22.1602V8.19531C48.0352 6.71094 48.0156 5.30469 47.8984 3.39062L48.2695 3.35156C48.543 4.52344 48.8359 5.40234 49.5781 7.57031L56.6289 28H58.6797V5.42188C58.6797 2.55078 59.0312 1.55469 60.457 1.04688V0.65625H55.457V1.04688C57.4492 1.53516 58.0938 2.88281 58.0938 6.08594V19.2305C58.0938 20.832 58.1133 22.1797 58.2109 24.2695L57.8398 24.3086C57.5469 23.2344 57.3516 22.4922 56.6875 20.5195L49.9492 0.65625H45.6719V1.04688C47.293 1.24219 47.4492 1.45703 47.4492 2.80469V23.2344C47.4492 26.1055 47.0977 27.1016 45.6719 27.6094V28H50.7891ZM69.3242 28L71.5898 12.0234C71.9609 9.48438 72.2539 7.12109 72.6445 3.83984H73.0156C73.4062 7.12109 73.7188 9.42578 74.1094 11.9844L76.6289 28H78.7578L82.625 5.1875C83.1719 2.39453 83.7383 1.33984 84.5391 1.04688V0.65625H80.1836V1.04688C82.1758 1.28125 82.5469 2.57031 81.1602 10.6172L79.7539 18.6836C79.4023 20.6953 79.0898 22.6289 78.6602 25.4414H78.2891C77.9961 22.6289 77.7617 20.7539 77.3711 18.0781L74.793 0.65625H72.6055L70.1055 18.0781C69.7148 20.7539 69.4805 22.6094 69.1484 25.4609H68.7773C68.5039 22.6094 68.2891 20.7539 67.9375 18.6055L65.8086 5.77344C65.1055 1.49609 65.3008 1.24219 67.3516 1.04688V0.65625H61.4922V1.04688C62.4297 1.24219 62.6641 1.41797 62.9375 2.80469L67.2148 28H69.3242Z" fill="#E01111"/>
</svg>
