<svg width="85" height="29" viewBox="0 0 85 29" fill="none" xmlns="http://www.w3.org/2000/svg">
<path d="M12.6699 28.2763L13.002 15.6591H12.4551C11.6348 25.8935 10.8926 27.6904 7.47461 27.6904H3.4707L3.37305 27.456C3.70508 26.6747 4.03711 25.913 4.31055 25.1318L12.6895 1.32318V0.932556H1.20508L0.853516 12.4365H1.41992C2.18164 3.17865 2.98242 1.51849 6.51758 1.51849H9.93555L10.0918 1.75287C9.79883 2.3974 9.50586 3.17865 9.23242 3.92084L0.755859 27.8857V28.2763H12.6699ZM22.709 28.5888C27.123 28.5888 29.4863 25.5224 29.4863 19.7411V9.46771C29.4863 3.68646 27.123 0.620056 22.709 0.620056C18.2754 0.620056 15.9316 3.68646 15.9316 9.46771V19.7411C15.9316 25.5224 18.2754 28.5888 22.709 28.5888ZM22.709 28.1982C19.7793 28.1982 18.373 25.9521 18.373 20.6786V8.54974C18.373 3.25677 19.7793 1.01068 22.709 1.01068C25.6387 1.01068 27.0254 3.25677 27.0254 8.54974V20.6786C27.0254 25.9521 25.6387 28.1982 22.709 28.1982ZM43.9785 28.2763L44.2715 18.2177H43.7051C43.0605 25.9716 42.2012 27.6904 38.9785 27.6904H35.834V14.0576H37.748C39.7598 14.0576 40.2285 14.8583 40.5605 18.3154H40.9902V9.23334H40.5605C40.2285 12.6708 39.7598 13.4716 37.748 13.4716H35.834V1.51849H38.8223C42.0059 1.51849 42.8848 3.06146 43.5488 9.35052H44.1152L43.7832 0.932556H31.6543V1.32318C33.2559 1.51849 33.4316 1.73334 33.4316 3.08099V26.1279C33.4316 27.4755 33.2559 27.6904 31.6543 27.8857V28.2763H43.9785ZM51.1855 28.2763V27.8857C49.0957 27.2802 48.4316 25.8349 48.4316 22.4365V8.47162C48.4316 6.98724 48.4121 5.58099 48.2949 3.66693L48.666 3.62787C48.9395 4.79974 49.2324 5.67865 49.9746 7.84662L57.0254 28.2763H59.0762V5.69818C59.0762 2.82709 59.4277 1.83099 60.8535 1.32318V0.932556H55.8535V1.32318C57.8457 1.81146 58.4902 3.15912 58.4902 6.36224V19.5068C58.4902 21.1083 58.5098 22.456 58.6074 24.5458L58.2363 24.5849C57.9434 23.5107 57.748 22.7685 57.084 20.7958L50.3457 0.932556H46.0684V1.32318C47.6895 1.51849 47.8457 1.73334 47.8457 3.08099V23.5107C47.8457 26.3818 47.4941 27.3779 46.0684 27.8857V28.2763H51.1855ZM69.7207 28.2763L71.9863 12.2997C72.3574 9.76068 72.6504 7.3974 73.041 4.11615H73.4121C73.8027 7.3974 74.1152 9.70209 74.5059 12.2607L77.0254 28.2763H79.1543L83.0215 5.46381C83.5684 2.67084 84.1348 1.61615 84.9355 1.32318V0.932556H80.5801V1.32318C82.5723 1.55756 82.9434 2.84662 81.5566 10.8935L80.1504 18.9599C79.7988 20.9716 79.4863 22.9052 79.0566 25.7177H78.6855C78.3926 22.9052 78.1582 21.0302 77.7676 18.3544L75.1895 0.932556H73.002L70.502 18.3544C70.1113 21.0302 69.877 22.8857 69.5449 25.7372H69.1738C68.9004 22.8857 68.6855 21.0302 68.334 18.8818L66.2051 6.04974C65.502 1.7724 65.6973 1.51849 67.748 1.32318V0.932556H61.8887V1.32318C62.8262 1.51849 63.0605 1.69427 63.334 3.08099L67.6113 28.2763H69.7207Z" fill="#288E3E"/>
</svg>
