<svg width="64" height="39" viewBox="0 0 64 39" fill="none" xmlns="http://www.w3.org/2000/svg">
<path d="M5.8335 30.3516C9.2832 30.3516 11.1948 28.3081 11.1948 25.0122C11.1948 21.9141 9.67871 19.9365 7.59131 17.937L5.52588 15.9375C3.4165 13.894 2.36182 12.2241 2.36182 10.0928C2.36182 8.18115 3.52637 7.06055 5.28418 7.06055C7.6792 7.06055 9.17334 9.56543 10.0962 15.6958H10.6675V6.92871H10.228C9.41504 8.2251 8.36035 6.57715 5.48193 6.57715C2.22998 6.57715 0.604004 8.48877 0.604004 11.7407C0.604004 14.1797 1.72461 16.0254 3.79004 18.0029L5.87744 20.0024C7.96484 22.0459 9.41504 23.9795 9.41504 26.5723C9.41504 28.6597 8.20654 29.8682 6.11914 29.8682C3.28467 29.8682 1.94434 27.3413 0.911621 20.0244H0.340332V30H0.779785C1.8125 28.5498 2.86719 30.3516 5.8335 30.3516ZM18.6436 30.3296C20.2036 30.3296 21.5659 29.6045 22.4009 28.1323L22.0713 27.8467C21.4561 28.6816 20.6211 29.1431 19.7202 29.1431C18.4458 29.1431 17.7646 28.5278 17.7646 26.7261V7.58789H22.4009V6.92871H17.7646V0.161133H17.1274C16.8418 6.37939 16.3364 6.92871 12.623 6.92871V7.58789H15.1938V26.77C15.1938 29.0771 16.4023 30.3296 18.6436 30.3296ZM29.8716 30.3516C33.7827 30.3516 35.8921 27.627 35.8921 22.7051V14.2236C35.8921 9.27979 33.7827 6.57715 29.8716 6.57715C25.9385 6.57715 23.8291 9.27979 23.8291 14.2236V22.7051C23.8291 27.627 25.9385 30.3516 29.8716 30.3516ZM29.8716 29.9121C27.5864 29.9121 26.4878 28.1323 26.4878 23.6938V13.2568C26.4878 8.77441 27.5864 7.0166 29.8716 7.0166C32.1567 7.0166 33.2554 8.77441 33.2554 13.2568V23.6938C33.2554 28.1323 32.1567 29.9121 29.8716 29.9121ZM45.4941 30V29.5605C42.5278 29.3408 42.374 29.165 42.374 27.7588V16.5088C42.374 12.7515 43.9121 9.25781 45.1426 9.25781C45.9556 9.25781 45.4722 11.9824 47.0542 11.9824C47.999 11.9824 48.6143 10.9937 48.6143 9.25781C48.6143 7.63184 48.021 6.7749 46.9224 6.7749C44.9668 6.7749 43.165 9.23584 42.2861 13.1689L41.8906 13.0811C42.2642 9.69727 42.418 8.09326 42.4619 6.59912H42.0664C41.1216 7.58789 40.0669 7.93945 37.9795 8.20312V8.64258C39.6055 8.8623 39.7812 9.104 39.7812 10.6201V27.8247C39.7812 29.1431 39.5835 29.3628 37.9795 29.5605V30H45.4941ZM52.5913 38.042C54.8325 38.042 56.2168 35.4712 57.6011 28.9014L61.71 11.2134C62.4351 8.26904 62.8086 7.60986 63.7095 7.36816V6.92871H59.3149V7.36816C61.2925 7.56592 61.688 8.55469 60.3696 14.0918L59.0293 19.6069C58.6777 20.9912 58.2822 22.7051 57.8208 24.9243H57.4033C57.0518 22.6831 56.7002 20.9692 56.3706 19.519L54.3052 10.7739C53.6021 7.82959 53.8218 7.58789 55.8213 7.36816V6.92871H49.7568V7.36816C50.7236 7.58789 50.9434 7.85156 51.3389 9.3457L56.6123 30.813L55.9531 32.8345C55.3159 34.8999 54.1074 34.4165 52.5693 34.6362C51.4268 34.812 50.8115 35.3833 50.8115 36.394C50.8115 37.4487 51.4707 38.042 52.5913 38.042Z" fill="#288E3E"/>
</svg>
